<svg id="visual" viewBox="0 0 900 600" width="900" height="600" xmlns="http://www.w3.org/2000/svg" xmlns:xlink="http://www.w3.org/1999/xlink" version="1.1"><rect x="0" y="0" width="900" height="600" fill="#001220"></rect><path d="M0 383L21.5 390.8C43 398.7 86 414.3 128.8 410.5C171.7 406.7 214.3 383.3 257.2 377.8C300 372.3 343 384.7 385.8 396.7C428.7 408.7 471.3 420.3 514.2 425C557 429.7 600 427.3 642.8 427.3C685.7 427.3 728.3 429.7 771.2 429C814 428.3 857 424.7 878.5 422.8L900 421L900 601L878.5 601C857 601 814 601 771.2 601C728.3 601 685.7 601 642.8 601C600 601 557 601 514.2 601C471.3 601 428.7 601 385.8 601C343 601 300 601 257.2 601C214.3 601 171.7 601 128.8 601C86 601 43 601 21.5 601L0 601Z" fill="#78eb59"></path><path d="M0 416L21.5 413.3C43 410.7 86 405.3 128.8 412.5C171.7 419.7 214.3 439.3 257.2 449.3C300 459.3 343 459.7 385.8 460.5C428.7 461.3 471.3 462.7 514.2 461.8C557 461 600 458 642.8 459.2C685.7 460.3 728.3 465.7 771.2 456.7C814 447.7 857 424.3 878.5 412.7L900 401L900 601L878.5 601C857 601 814 601 771.2 601C728.3 601 685.7 601 642.8 601C600 601 557 601 514.2 601C471.3 601 428.7 601 385.8 601C343 601 300 601 257.2 601C214.3 601 171.7 601 128.8 601C86 601 43 601 21.5 601L0 601Z" fill="#bfbc00"></path><path d="M0 438L21.5 440C43 442 86 446 128.8 452.5C171.7 459 214.3 468 257.2 468.2C300 468.3 343 459.7 385.8 453C428.7 446.3 471.3 441.7 514.2 445.7C557 449.7 600 462.3 642.8 474.5C685.7 486.7 728.3 498.3 771.2 502.5C814 506.7 857 503.3 878.5 501.7L900 500L900 601L878.5 601C857 601 814 601 771.2 601C728.3 601 685.7 601 642.8 601C600 601 557 601 514.2 601C471.3 601 428.7 601 385.8 601C343 601 300 601 257.2 601C214.3 601 171.7 601 128.8 601C86 601 43 601 21.5 601L0 601Z" fill="#e18607"></path><path d="M0 498L21.5 499.2C43 500.3 86 502.7 128.8 505.2C171.7 507.7 214.3 510.3 257.2 507.2C300 504 343 495 385.8 499.3C428.7 503.7 471.3 521.3 514.2 522.5C557 523.7 600 508.3 642.8 503.5C685.7 498.7 728.3 504.3 771.2 506C814 507.7 857 505.3 878.5 504.2L900 503L900 601L878.5 601C857 601 814 601 771.2 601C728.3 601 685.7 601 642.8 601C600 601 557 601 514.2 601C471.3 601 428.7 601 385.8 601C343 601 300 601 257.2 601C214.3 601 171.7 601 128.8 601C86 601 43 601 21.5 601L0 601Z" fill="#e44e40"></path><path d="M0 558L21.5 552.8C43 547.7 86 537.3 128.8 538.3C171.7 539.3 214.3 551.7 257.2 558.5C300 565.3 343 566.7 385.8 561.3C428.7 556 471.3 544 514.2 543.5C557 543 600 554 642.8 553.7C685.7 553.3 728.3 541.7 771.2 542.7C814 543.7 857 557.3 878.5 564.2L900 571L900 601L878.5 601C857 601 814 601 771.2 601C728.3 601 685.7 601 642.8 601C600 601 557 601 514.2 601C471.3 601 428.7 601 385.8 601C343 601 300 601 257.2 601C214.3 601 171.7 601 128.8 601C86 601 43 601 21.5 601L0 601Z" fill="#c62368"></path></svg>