<svg id="visual" viewBox="0 0 960 540" width="960" height="540" xmlns="http://www.w3.org/2000/svg" xmlns:xlink="http://www.w3.org/1999/xlink" version="1.1"><rect x="0" y="0" width="960" height="540" fill="#002233"></rect><path d="M0 76L32 79.2C64 82.3 128 88.7 192 84C256 79.3 320 63.7 384 65.2C448 66.7 512 85.3 576 94.5C640 103.7 704 103.3 768 104.7C832 106 896 109 928 110.5L960 112L960 0L928 0C896 0 832 0 768 0C704 0 640 0 576 0C512 0 448 0 384 0C320 0 256 0 192 0C128 0 64 0 32 0L0 0Z" fill="#1700ff" stroke-linecap="round" stroke-linejoin="miter"></path></svg>