<?xml version="1.0" standalone="no"?>
<svg xmlns:xlink="http://www.w3.org/1999/xlink" id="wave" style="transform:rotate(180deg); transition: 0.3s" viewBox="0 0 1440 490" version="1.1" xmlns="http://www.w3.org/2000/svg"><defs><linearGradient id="sw-gradient-0" x1="0" x2="0" y1="1" y2="0"><stop stop-color="rgba(8.315, 13.981, 8.017, 1)" offset="0%"/><stop stop-color="rgba(64.553, 255, 11, 1)" offset="100%"/></linearGradient></defs><path style="transform:translate(0, 0px); opacity:1" fill="url(#sw-gradient-0)" d="M0,0L240,57.2C480,114,960,229,1440,261.3C1920,294,2400,245,2880,187.8C3360,131,3840,65,4320,81.7C4800,98,5280,196,5760,220.5C6240,245,6720,196,7200,171.5C7680,147,8160,147,8640,187.8C9120,229,9600,310,10080,343C10560,376,11040,359,11520,294C12000,229,12480,114,12960,89.8C13440,65,13920,131,14400,130.7C14880,131,15360,65,15840,57.2C16320,49,16800,98,17280,163.3C17760,229,18240,310,18720,326.7C19200,343,19680,294,20160,285.8C20640,278,21120,310,21600,285.8C22080,261,22560,180,23040,187.8C23520,196,24000,294,24480,277.7C24960,261,25440,131,25920,98C26400,65,26880,131,27360,171.5C27840,212,28320,229,28800,261.3C29280,294,29760,343,30240,359.3C30720,376,31200,359,31680,310.3C32160,261,32640,180,33120,138.8C33600,98,34080,98,34320,98L34560,98L34560,490L34320,490C34080,490,33600,490,33120,490C32640,490,32160,490,31680,490C31200,490,30720,490,30240,490C29760,490,29280,490,28800,490C28320,490,27840,490,27360,490C26880,490,26400,490,25920,490C25440,490,24960,490,24480,490C24000,490,23520,490,23040,490C22560,490,22080,490,21600,490C21120,490,20640,490,20160,490C19680,490,19200,490,18720,490C18240,490,17760,490,17280,490C16800,490,16320,490,15840,490C15360,490,14880,490,14400,490C13920,490,13440,490,12960,490C12480,490,12000,490,11520,490C11040,490,10560,490,10080,490C9600,490,9120,490,8640,490C8160,490,7680,490,7200,490C6720,490,6240,490,5760,490C5280,490,4800,490,4320,490C3840,490,3360,490,2880,490C2400,490,1920,490,1440,490C960,490,480,490,240,490L0,490Z"/></svg>